<svg xmlns="http://www.w3.org/2000/svg" xmlns:v="https://svgstorm.com"
viewBox = "0 0 512 512"
width="512"
height="512">
<g fill="None" fill-opacity="0.0" stroke="#000000" stroke-opacity="0.01" stroke-width="0.3"><path d="
M 0.00 200.00 
C 0.50 200.00 1.00 200.00 1.00 200.00
C 7.73 186.04 12.36 170.01 31.02 167.02 C 49.69 164.04 71.48 164.10 92.00 165.00 C 112.52 165.90 134.69 162.61 156.00 165.00 C 177.31 167.39 181.19 148.55 185.93 131.93 C 190.67 115.30 196.08 99.52 201.32 83.32 C 206.56 67.12 211.34 51.88 216.98 35.98 C 222.61 20.07 240.06 10.93 256.00 11.00 C 271.94 11.07 288.73 19.67 294.77 35.23 C 300.81 50.79 304.95 66.73 310.32 82.68 C 315.69 98.62 321.01 114.76 325.98 131.02 C 330.94 147.29 333.63 167.17 355.00 165.00 C 376.37 162.83 398.33 165.88 419.00 165.00 C 439.67 164.12 461.07 164.25 480.07 166.93 C 499.07 169.60 504.11 185.75 511.00 200.00
C 511.09 200.20 512.00 200.00 512.00 200.00
L 512.00 0.00
L 0.00 0.00
L 0.00 200.00 Z"/>
</g>
<g fill="None" fill-opacity="0.0" stroke="#A08963" stroke-opacity="1.00" stroke-width="0.3"><path d="
M 1.00 200.00 
C 1.42 204.63 0.63 209.37 1.00 214.00
C 2.22 229.42 15.09 240.57 27.25 248.75 C 39.40 256.94 50.53 265.92 62.75 274.25 C 74.96 282.59 85.97 292.46 98.70 300.30 C 111.43 308.15 127.36 319.53 119.68 335.68 C 112.00 351.82 111.01 366.02 104.68 381.68 C 98.34 397.33 95.53 413.07 89.22 428.22 C 82.92 443.38 78.83 462.72 86.77 477.23 C 94.71 491.74 108.96 501.00 125.00 501.00 C 141.05 501.00 153.47 489.65 165.70 480.70 C 177.92 471.74 188.71 464.63 200.75 454.75 C 212.80 444.88 224.94 440.64 236.75 428.75 C 248.56 416.86 264.02 417.58 275.75 429.25 C 287.49 440.92 299.88 445.23 311.75 455.25 C 323.61 465.27 335.00 471.93 347.08 480.92 C 359.17 489.91 371.97 501.72 388.00 501.00 C 404.03 500.28 417.76 491.53 425.77 476.77 C 433.78 462.02 428.21 442.91 422.22 427.78 C 416.24 412.64 413.39 396.55 407.07 380.93 C 400.76 365.30 399.51 351.23 392.07 334.93 C 384.64 318.63 401.48 307.91 414.08 300.08 C 426.68 292.26 437.28 281.91 449.75 273.75 C 462.22 265.59 472.56 256.61 485.25 248.25 C 497.94 239.88 510.12 228.17 511.00 212.00
C 511.22 208.02 510.64 203.96 511.00 200.00
C 504.11 185.75 499.07 169.60 480.07 166.93 C 461.07 164.25 439.67 164.12 419.00 165.00 C 398.33 165.88 376.37 162.83 355.00 165.00 C 333.63 167.17 330.94 147.29 325.98 131.02 C 321.01 114.76 315.69 98.62 310.32 82.68 C 304.95 66.73 300.81 50.79 294.77 35.23 C 288.73 19.67 271.94 11.07 256.00 11.00 C 240.06 10.93 222.61 20.07 216.98 35.98 C 211.34 51.88 206.56 67.12 201.32 83.32 C 196.08 99.52 190.67 115.30 185.93 131.93 C 181.19 148.55 177.31 167.39 156.00 165.00 C 134.69 162.61 112.52 165.90 92.00 165.00 C 71.48 164.10 49.69 164.04 31.02 167.02 C 12.36 170.01 7.73 186.04 1.00 200.00
M 262.00 40.00 
C 273.46 43.48 271.11 62.45 276.32 71.68 C 281.53 80.91 283.28 96.67 287.93 107.07 C 292.57 117.48 294.58 131.22 298.98 142.02 C 303.37 152.83 304.94 166.09 312.25 175.75 C 319.56 185.40 327.19 191.89 340.22 193.78 C 353.25 195.67 372.94 192.72 387.00 194.00 C 401.06 195.28 418.84 192.15 433.00 194.00 C 447.16 195.85 464.77 189.17 477.23 196.77 C 489.69 204.37 478.23 220.29 468.77 224.77 C 459.31 229.25 450.93 238.97 441.75 244.75 C 432.58 250.54 423.96 257.43 414.77 263.77 C 405.58 270.11 397.27 277.27 387.75 283.75 C 378.24 290.23 370.42 296.01 365.03 307.03 C 359.63 318.04 360.22 334.13 365.32 345.68 C 370.43 357.23 372.35 369.26 376.93 381.07 C 381.50 392.89 383.50 403.86 387.99 416.01 C 392.48 428.16 394.44 438.48 399.93 451.07 C 405.41 463.67 390.61 476.66 379.77 469.23 C 368.93 461.80 362.53 456.40 352.75 449.25 C 342.97 442.10 335.18 437.19 325.77 430.23 C 316.36 423.27 308.25 417.04 298.75 410.25 C 289.26 403.45 281.78 397.15 270.92 392.08 C 260.07 387.00 243.58 389.19 233.77 395.77 C 223.96 402.35 216.46 408.54 206.92 414.92 C 197.38 421.30 189.52 428.88 179.75 434.75 C 169.98 440.63 163.67 449.04 153.25 454.25 C 142.82 459.46 137.42 471.78 123.98 471.98 C 110.53 472.17 109.04 453.00 114.93 442.93 C 120.82 432.85 121.66 418.38 126.32 407.32 C 130.98 396.27 133.81 383.41 137.93 371.93 C 142.05 360.44 145.15 348.72 148.99 336.99 C 152.84 325.27 150.82 309.40 143.08 299.92 C 135.34 290.44 127.14 285.81 117.92 279.08 C 108.70 272.35 100.06 265.74 90.75 259.25 C 81.45 252.75 73.74 246.30 64.25 239.75 C 54.76 233.20 46.89 226.63 36.77 220.23 C 26.65 213.83 27.87 193.79 43.00 194.00 C 58.13 194.21 75.08 193.99 90.00 194.00 C 104.92 194.01 121.70 194.20 136.00 194.00 C 150.30 193.80 168.02 195.73 180.07 191.07 C 192.13 186.41 198.67 179.89 203.77 168.77 C 208.87 157.66 211.54 144.88 215.33 133.33 C 219.11 121.77 223.54 110.58 226.93 98.93 C 230.32 87.27 234.95 74.87 238.32 63.32 C 241.69 51.77 245.11 34.87 262.00 40.00 Z"/>
</g>
<g fill="None" fill-opacity="0.0" stroke="#000000" stroke-opacity="0.01" stroke-width="0.3"><path d="
M 262.00 40.00 
C 245.11 34.87 241.69 51.77 238.32 63.32 C 234.95 74.87 230.32 87.27 226.93 98.93 C 223.54 110.58 219.11 121.77 215.33 133.33 C 211.54 144.88 208.87 157.66 203.77 168.77 C 198.67 179.89 192.13 186.41 180.07 191.07 C 168.02 195.73 150.30 193.80 136.00 194.00 C 121.70 194.20 104.92 194.01 90.00 194.00 C 75.08 193.99 58.13 194.21 43.00 194.00 C 27.87 193.79 26.65 213.83 36.77 220.23 C 46.89 226.63 54.76 233.20 64.25 239.75 C 73.74 246.30 81.45 252.75 90.75 259.25 C 100.06 265.74 108.70 272.35 117.92 279.08 C 127.14 285.81 135.34 290.44 143.08 299.92 C 150.82 309.40 152.84 325.27 148.99 336.99 C 145.15 348.72 142.05 360.44 137.93 371.93 C 133.81 383.41 130.98 396.27 126.32 407.32 C 121.66 418.38 120.82 432.85 114.93 442.93 C 109.04 453.00 110.53 472.17 123.98 471.98 C 137.42 471.78 142.82 459.46 153.25 454.25 C 163.67 449.04 169.98 440.63 179.75 434.75 C 189.52 428.88 197.38 421.30 206.92 414.92 C 216.46 408.54 223.96 402.35 233.77 395.77 C 243.58 389.19 260.07 387.00 270.92 392.08 C 281.78 397.15 289.26 403.45 298.75 410.25 C 308.25 417.04 316.36 423.27 325.77 430.23 C 335.18 437.19 342.97 442.10 352.75 449.25 C 362.53 456.40 368.93 461.80 379.77 469.23 C 390.61 476.66 405.41 463.67 399.93 451.07 C 394.44 438.48 392.48 428.16 387.99 416.01 C 383.50 403.86 381.50 392.89 376.93 381.07 C 372.35 369.26 370.43 357.23 365.32 345.68 C 360.22 334.13 359.63 318.04 365.03 307.03 C 370.42 296.01 378.24 290.23 387.75 283.75 C 397.27 277.27 405.58 270.11 414.77 263.77 C 423.96 257.43 432.58 250.54 441.75 244.75 C 450.93 238.97 459.31 229.25 468.77 224.77 C 478.23 220.29 489.69 204.37 477.23 196.77 C 464.77 189.17 447.16 195.85 433.00 194.00 C 418.84 192.15 401.06 195.28 387.00 194.00 C 372.94 192.72 353.25 195.67 340.22 193.78 C 327.19 191.89 319.56 185.40 312.25 175.75 C 304.94 166.09 303.37 152.83 298.98 142.02 C 294.58 131.22 292.57 117.48 287.93 107.07 C 283.28 96.67 281.53 80.91 276.32 71.68 C 271.11 62.45 273.46 43.48 262.00 40.00 Z"/>
</g>
<g fill="None" fill-opacity="0.0" stroke="#000000" stroke-opacity="0.78" stroke-width="0.3"><path d="
M 0.00 214.00 
C 0.50 214.00 1.00 214.00 1.00 214.00
C 0.63 209.37 1.42 204.63 1.00 200.00
C 1.00 200.00 0.50 200.00 0.00 200.00
L 0.00 214.00 Z"/>
</g>
<g fill="None" fill-opacity="0.0" stroke="#000000" stroke-opacity="0.78" stroke-width="0.3"><path d="
M 511.00 212.00 
C 511.00 211.99 512.00 212.00 512.00 212.00
L 512.00 200.00
C 512.00 200.00 511.09 200.20 511.00 200.00
C 510.64 203.96 511.22 208.02 511.00 212.00 Z"/>
</g>
<g fill="None" fill-opacity="0.0" stroke="#000000" stroke-opacity="0.01" stroke-width="0.3"><path d="
M 1.00 214.00 
C 1.00 214.00 0.50 214.00 0.00 214.00
L 0.00 512.00
L 512.00 512.00
L 512.00 212.00
C 512.00 212.00 511.00 211.99 511.00 212.00
C 510.12 228.17 497.94 239.88 485.25 248.25 C 472.56 256.61 462.22 265.59 449.75 273.75 C 437.28 281.91 426.68 292.26 414.08 300.08 C 401.48 307.91 384.64 318.63 392.07 334.93 C 399.51 351.23 400.76 365.30 407.07 380.93 C 413.39 396.55 416.24 412.64 422.22 427.78 C 428.21 442.91 433.78 462.02 425.77 476.77 C 417.76 491.53 404.03 500.28 388.00 501.00 C 371.97 501.72 359.17 489.91 347.08 480.92 C 335.00 471.93 323.61 465.27 311.75 455.25 C 299.88 445.23 287.49 440.92 275.75 429.25 C 264.02 417.58 248.56 416.86 236.75 428.75 C 224.94 440.64 212.80 444.88 200.75 454.75 C 188.71 464.63 177.92 471.74 165.70 480.70 C 153.47 489.65 141.05 501.00 125.00 501.00 C 108.96 501.00 94.71 491.74 86.77 477.23 C 78.83 462.72 82.92 443.38 89.22 428.22 C 95.53 413.07 98.34 397.33 104.68 381.68 C 111.01 366.02 112.00 351.82 119.68 335.68 C 127.36 319.53 111.43 308.15 98.70 300.30 C 85.97 292.46 74.96 282.59 62.75 274.25 C 50.53 265.92 39.40 256.94 27.25 248.75 C 15.09 240.57 2.22 229.42 1.00 214.00 Z"/>
</g>
<g fill="#000000" fill-opacity="0.01" stroke="None">
<path d="
M 0.00 200.00 
C 0.50 200.00 1.00 200.00 1.00 200.00
C 7.73 186.04 12.36 170.01 31.02 167.02 C 49.69 164.04 71.48 164.10 92.00 165.00 C 112.52 165.90 134.69 162.61 156.00 165.00 C 177.31 167.39 181.19 148.55 185.93 131.93 C 190.67 115.30 196.08 99.52 201.32 83.32 C 206.56 67.12 211.34 51.88 216.98 35.98 C 222.61 20.07 240.06 10.93 256.00 11.00 C 271.94 11.07 288.73 19.67 294.77 35.23 C 300.81 50.79 304.95 66.73 310.32 82.68 C 315.69 98.62 321.01 114.76 325.98 131.02 C 330.94 147.29 333.63 167.17 355.00 165.00 C 376.37 162.83 398.33 165.88 419.00 165.00 C 439.67 164.12 461.07 164.25 480.07 166.93 C 499.07 169.60 504.11 185.75 511.00 200.00
C 511.09 200.20 512.00 200.00 512.00 200.00
L 512.00 0.00
L 0.00 0.00
L 0.00 200.00 Z"/>
</g>
<g fill="#A08963" fill-opacity="1.00" stroke="None">
<path d="
M 1.00 200.00 
C 1.42 204.63 0.63 209.37 1.00 214.00
C 2.22 229.42 15.09 240.57 27.25 248.75 C 39.40 256.94 50.53 265.92 62.75 274.25 C 74.96 282.59 85.97 292.46 98.70 300.30 C 111.43 308.15 127.36 319.53 119.68 335.68 C 112.00 351.82 111.01 366.02 104.68 381.68 C 98.34 397.33 95.53 413.07 89.22 428.22 C 82.92 443.38 78.83 462.72 86.77 477.23 C 94.71 491.74 108.96 501.00 125.00 501.00 C 141.05 501.00 153.47 489.65 165.70 480.70 C 177.92 471.74 188.71 464.63 200.75 454.75 C 212.80 444.88 224.94 440.64 236.75 428.75 C 248.56 416.86 264.02 417.58 275.75 429.25 C 287.49 440.92 299.88 445.23 311.75 455.25 C 323.61 465.27 335.00 471.93 347.08 480.92 C 359.17 489.91 371.97 501.72 388.00 501.00 C 404.03 500.28 417.76 491.53 425.77 476.77 C 433.78 462.02 428.21 442.91 422.22 427.78 C 416.24 412.64 413.39 396.55 407.07 380.93 C 400.76 365.30 399.51 351.23 392.07 334.93 C 384.64 318.63 401.48 307.91 414.08 300.08 C 426.68 292.26 437.28 281.91 449.75 273.75 C 462.22 265.59 472.56 256.61 485.25 248.25 C 497.94 239.88 510.12 228.17 511.00 212.00
C 511.22 208.02 510.64 203.96 511.00 200.00
C 504.11 185.75 499.07 169.60 480.07 166.93 C 461.07 164.25 439.67 164.12 419.00 165.00 C 398.33 165.88 376.37 162.83 355.00 165.00 C 333.63 167.17 330.94 147.29 325.98 131.02 C 321.01 114.76 315.69 98.62 310.32 82.68 C 304.95 66.73 300.81 50.79 294.77 35.23 C 288.73 19.67 271.94 11.07 256.00 11.00 C 240.06 10.93 222.61 20.07 216.98 35.98 C 211.34 51.88 206.56 67.12 201.32 83.32 C 196.08 99.52 190.67 115.30 185.93 131.93 C 181.19 148.55 177.31 167.39 156.00 165.00 C 134.69 162.61 112.52 165.90 92.00 165.00 C 71.48 164.10 49.69 164.04 31.02 167.02 C 12.36 170.01 7.73 186.04 1.00 200.00
M 262.00 40.00 
C 273.46 43.48 271.11 62.45 276.32 71.68 C 281.53 80.91 283.28 96.67 287.93 107.07 C 292.57 117.48 294.58 131.22 298.98 142.02 C 303.37 152.83 304.94 166.09 312.25 175.75 C 319.56 185.40 327.19 191.89 340.22 193.78 C 353.25 195.67 372.94 192.72 387.00 194.00 C 401.06 195.28 418.84 192.15 433.00 194.00 C 447.16 195.85 464.77 189.17 477.23 196.77 C 489.69 204.37 478.23 220.29 468.77 224.77 C 459.31 229.25 450.93 238.97 441.75 244.75 C 432.58 250.54 423.96 257.43 414.77 263.77 C 405.58 270.11 397.27 277.27 387.75 283.75 C 378.24 290.23 370.42 296.01 365.03 307.03 C 359.63 318.04 360.22 334.13 365.32 345.68 C 370.43 357.23 372.35 369.26 376.93 381.07 C 381.50 392.89 383.50 403.86 387.99 416.01 C 392.48 428.16 394.44 438.48 399.93 451.07 C 405.41 463.67 390.61 476.66 379.77 469.23 C 368.93 461.80 362.53 456.40 352.75 449.25 C 342.97 442.10 335.18 437.19 325.77 430.23 C 316.36 423.27 308.25 417.04 298.75 410.25 C 289.26 403.45 281.78 397.15 270.92 392.08 C 260.07 387.00 243.58 389.19 233.77 395.77 C 223.96 402.35 216.46 408.54 206.92 414.92 C 197.38 421.30 189.52 428.88 179.75 434.75 C 169.98 440.63 163.67 449.04 153.25 454.25 C 142.82 459.46 137.42 471.78 123.98 471.98 C 110.53 472.17 109.04 453.00 114.93 442.93 C 120.82 432.85 121.66 418.38 126.32 407.32 C 130.98 396.27 133.81 383.41 137.93 371.93 C 142.05 360.44 145.15 348.72 148.99 336.99 C 152.84 325.27 150.82 309.40 143.08 299.92 C 135.34 290.44 127.14 285.81 117.92 279.08 C 108.70 272.35 100.06 265.74 90.75 259.25 C 81.45 252.75 73.74 246.30 64.25 239.75 C 54.76 233.20 46.89 226.63 36.77 220.23 C 26.65 213.83 27.87 193.79 43.00 194.00 C 58.13 194.21 75.08 193.99 90.00 194.00 C 104.92 194.01 121.70 194.20 136.00 194.00 C 150.30 193.80 168.02 195.73 180.07 191.07 C 192.13 186.41 198.67 179.89 203.77 168.77 C 208.87 157.66 211.54 144.88 215.33 133.33 C 219.11 121.77 223.54 110.58 226.93 98.93 C 230.32 87.27 234.95 74.87 238.32 63.32 C 241.69 51.77 245.11 34.87 262.00 40.00 Z"/>
</g>
<g fill="#000000" fill-opacity="0.01" stroke="None">
<path d="
M 262.00 40.00 
C 245.11 34.87 241.69 51.77 238.32 63.32 C 234.95 74.87 230.32 87.27 226.93 98.93 C 223.54 110.58 219.11 121.77 215.33 133.33 C 211.54 144.88 208.87 157.66 203.77 168.77 C 198.67 179.89 192.13 186.41 180.07 191.07 C 168.02 195.73 150.30 193.80 136.00 194.00 C 121.70 194.20 104.92 194.01 90.00 194.00 C 75.08 193.99 58.13 194.21 43.00 194.00 C 27.87 193.79 26.65 213.83 36.77 220.23 C 46.89 226.63 54.76 233.20 64.25 239.75 C 73.74 246.30 81.45 252.75 90.75 259.25 C 100.06 265.74 108.70 272.35 117.92 279.08 C 127.14 285.81 135.34 290.44 143.08 299.92 C 150.82 309.40 152.84 325.27 148.99 336.99 C 145.15 348.72 142.05 360.44 137.93 371.93 C 133.81 383.41 130.98 396.27 126.32 407.32 C 121.66 418.38 120.82 432.85 114.93 442.93 C 109.04 453.00 110.53 472.17 123.98 471.98 C 137.42 471.78 142.82 459.46 153.25 454.25 C 163.67 449.04 169.98 440.63 179.75 434.75 C 189.52 428.88 197.38 421.30 206.92 414.92 C 216.46 408.54 223.96 402.35 233.77 395.77 C 243.58 389.19 260.07 387.00 270.92 392.08 C 281.78 397.15 289.26 403.45 298.75 410.25 C 308.25 417.04 316.36 423.27 325.77 430.23 C 335.18 437.19 342.97 442.10 352.75 449.25 C 362.53 456.40 368.93 461.80 379.77 469.23 C 390.61 476.66 405.41 463.67 399.93 451.07 C 394.44 438.48 392.48 428.16 387.99 416.01 C 383.50 403.86 381.50 392.89 376.93 381.07 C 372.35 369.26 370.43 357.23 365.32 345.68 C 360.22 334.13 359.63 318.04 365.03 307.03 C 370.42 296.01 378.24 290.23 387.75 283.75 C 397.27 277.27 405.58 270.11 414.77 263.77 C 423.96 257.43 432.58 250.54 441.75 244.75 C 450.93 238.97 459.31 229.25 468.77 224.77 C 478.23 220.29 489.69 204.37 477.23 196.77 C 464.77 189.17 447.16 195.85 433.00 194.00 C 418.84 192.15 401.06 195.28 387.00 194.00 C 372.94 192.72 353.25 195.67 340.22 193.78 C 327.19 191.89 319.56 185.40 312.25 175.75 C 304.94 166.09 303.37 152.83 298.98 142.02 C 294.58 131.22 292.57 117.48 287.93 107.07 C 283.28 96.67 281.53 80.91 276.32 71.68 C 271.11 62.45 273.46 43.48 262.00 40.00 Z"/>
</g>
<g fill="#000000" fill-opacity="0.78" stroke="None">
<path d="
M 0.00 214.00 
C 0.50 214.00 1.00 214.00 1.00 214.00
C 0.63 209.37 1.42 204.63 1.00 200.00
C 1.00 200.00 0.50 200.00 0.00 200.00
L 0.00 214.00 Z"/>
</g>
<g fill="#000000" fill-opacity="0.78" stroke="None">
<path d="
M 511.00 212.00 
C 511.00 211.99 512.00 212.00 512.00 212.00
L 512.00 200.00
C 512.00 200.00 511.09 200.20 511.00 200.00
C 510.64 203.96 511.22 208.02 511.00 212.00 Z"/>
</g>
<g fill="#000000" fill-opacity="0.01" stroke="None">
<path d="
M 1.00 214.00 
C 1.00 214.00 0.50 214.00 0.00 214.00
L 0.00 512.00
L 512.00 512.00
L 512.00 212.00
C 512.00 212.00 511.00 211.99 511.00 212.00
C 510.12 228.17 497.94 239.88 485.25 248.25 C 472.56 256.61 462.22 265.59 449.75 273.75 C 437.28 281.91 426.68 292.26 414.08 300.08 C 401.48 307.91 384.64 318.63 392.07 334.93 C 399.51 351.23 400.76 365.30 407.07 380.93 C 413.39 396.55 416.24 412.64 422.22 427.78 C 428.21 442.91 433.78 462.02 425.77 476.77 C 417.76 491.53 404.03 500.28 388.00 501.00 C 371.97 501.72 359.17 489.91 347.08 480.92 C 335.00 471.93 323.61 465.27 311.75 455.25 C 299.88 445.23 287.49 440.92 275.75 429.25 C 264.02 417.58 248.56 416.86 236.75 428.75 C 224.94 440.64 212.80 444.88 200.75 454.75 C 188.71 464.63 177.92 471.74 165.70 480.70 C 153.47 489.65 141.05 501.00 125.00 501.00 C 108.96 501.00 94.71 491.74 86.77 477.23 C 78.83 462.72 82.92 443.38 89.22 428.22 C 95.53 413.07 98.34 397.33 104.68 381.68 C 111.01 366.02 112.00 351.82 119.68 335.68 C 127.36 319.53 111.43 308.15 98.70 300.30 C 85.97 292.46 74.96 282.59 62.75 274.25 C 50.53 265.92 39.40 256.94 27.25 248.75 C 15.09 240.57 2.22 229.42 1.00 214.00 Z"/>
</g>
</svg>